<?xml version="1.0" standalone="no"?>
<!DOCTYPE svg PUBLIC "-//W3C//DTD SVG 20010904//EN"
 "http://www.w3.org/TR/2001/REC-SVG-20010904/DTD/svg10.dtd">
<svg version="1.0" xmlns="http://www.w3.org/2000/svg"
 width="656.000000pt" height="656.000000pt" viewBox="0 0 656.000000 656.000000"
 preserveAspectRatio="xMidYMid meet">
<metadata>
Created by potrace 1.11, written by Peter Selinger 2001-2013
</metadata>
<g transform="translate(0.000000,656.000000) scale(0.100000,-0.100000)"
fill="#000000" stroke="none">
<path d="M3049 6046 c-2 -2 -47 -6 -100 -10 -316 -20 -697 -128 -1009 -288
-267 -136 -479 -289 -690 -497 -177 -175 -311 -343 -430 -540 -65 -108 -180
-337 -180 -358 0 -15 -13 -23 -48 -29 -49 -9 -176 -55 -212 -77 -143 -87 -201
-216 -156 -344 37 -106 68 -156 159 -257 15 -17 27 -33 27 -36 0 -4 -17 -14
-37 -23 -84 -37 -118 -92 -80 -128 25 -24 81 -49 108 -49 11 0 19 -7 19 -15 0
-234 21 -489 55 -660 30 -148 103 -390 153 -507 18 -40 19 -48 6 -59 -25 -21
-16 -49 21 -65 23 -9 41 -27 55 -54 l20 -39 -78 -78 c-236 -237 -355 -431
-361 -586 -6 -160 75 -256 270 -321 42 -14 61 -18 189 -36 58 -8 354 -5 430 4
68 9 111 15 158 21 49 7 49 6 -2 -58 -45 -56 -30 -72 64 -72 l73 1 41 -57 c65
-91 81 -88 110 15 16 56 23 67 49 76 44 15 49 14 123 -32 179 -109 482 -233
704 -289 252 -63 433 -84 715 -83 369 1 693 66 1045 211 170 69 420 210 552
310 31 24 59 43 63 43 10 0 27 -20 65 -77 19 -29 43 -55 54 -59 19 -6 46 13
50 37 1 8 10 40 20 72 l19 57 71 22 c39 11 77 25 84 31 25 20 11 46 -48 88
-33 23 -59 45 -58 49 2 4 40 47 84 96 133 145 240 284 328 426 26 42 55 79 64
82 20 5 64 14 107 22 168 28 327 128 371 234 48 113 -10 280 -151 435 -38 42
-45 55 -41 80 3 17 12 68 20 115 23 132 24 139 41 344 3 35 24 67 81 121 27
25 143 164 171 205 48 71 99 170 116 227 27 89 16 204 -25 267 -63 96 -220
166 -405 181 -37 4 -71 9 -74 13 -4 4 -26 57 -50 117 -55 140 -148 322 -227
449 -65 103 -206 293 -268 361 -137 151 -275 283 -379 362 -28 21 -56 44 -64
51 -36 34 -283 189 -393 247 -244 127 -540 230 -778 270 -19 3 -42 8 -50 10
-8 2 -46 7 -85 11 -38 3 -74 9 -78 11 -10 6 -392 15 -398 9z m-2617 -2510 c-7
-25 -9 -27 -21 -12 -12 14 -11 19 5 30 24 18 25 16 16 -18z m572 -1953 c41
-54 94 -118 118 -143 90 -96 99 -86 -75 -87 -309 -3 -428 65 -388 222 11 44
59 133 90 167 9 9 30 35 46 56 l30 39 52 -78 c28 -44 86 -123 127 -176z"/>
</g>
</svg>
